# xmcd
#
# Track frame offsets:
#	150
#	15026
#	30884
#	52233
#	70196
#	84152
#	113754
#	128323
#	143622
#	160757
#
# Disc length: 2369 seconds
#
# Revision: 2
# Processed by: cddbd v1.5.2PL0 Copyright (c) Steve Scherf et al.
# Submitted via: EZCDAudioConverter 2.2.2.1
#
DISCID=65093f0a
DTITLE=Beggars Blue - New Boots
DYEAR=2015
DGENRE=Blues
TTITLE0=Satisfied Man
TTITLE1=The Girl That Walks Beside Me
TTITLE2=Rainy Nights
TTITLE3=Since You Used Me
TTITLE4=Don't You Talk To My Girl
TTITLE5=Walking In New Boots
TTITLE6=The Doctors Medicine
TTITLE7=She's A Human Hook
TTITLE8=I'll Put Myself In The Ground
TTITLE9=Choppin' Wood
EXTD=
EXTT0=
EXTT1=
EXTT2=
EXTT3=
EXTT4=
EXTT5=
EXTT6=
EXTT7=
EXTT8=
EXTT9=
PLAYORDER=
